<?xml version="1.0" encoding="utf-8"?>
<svg viewBox="0 0 24 24" xmlns="http://www.w3.org/2000/svg">
  <path fill="rgb(255,255,255)" d="M 19.234 10.37 L 12.364 3.153 C 11.899 2.668 11.182 2.685 10.736 3.195 L 4.419 10.409 L 4.093 10.777 L 4.093 21.412 L 10.183 21.412 L 10.183 14.778 L 13.502 14.778 L 13.502 21.412 L 19.592 21.412 L 19.592 10.745 L 19.234 10.37 Z M 11.566 4.065 C 11.577 4.065 11.57 4.066 11.566 4.072 C 11.562 4.066 11.556 4.065 11.566 4.065 Z M 18.485 20.147 L 14.61 20.147 L 14.61 14.778 C 14.61 14.079 14.114 13.512 13.502 13.512 L 10.183 13.512 C 9.571 13.512 9.075 14.079 9.075 14.778 L 9.075 20.147 L 5.201 20.147 L 5.201 11.301 L 11.566 4.087 C 11.567 4.087 11.567 4.087 11.567 4.087 L 18.485 11.301 L 18.485 20.147 Z" class="ci-primary" style=""/>
</svg>